<?xml version="1.0" standalone="no"?>
<!DOCTYPE svg PUBLIC "-//W3C//DTD SVG 20010904//EN"
 "http://www.w3.org/TR/2001/REC-SVG-20010904/DTD/svg10.dtd">
<svg version="1.0" xmlns="http://www.w3.org/2000/svg"
 width="375.000000pt" height="113.000000pt" viewBox="0 0 375.000000 113.000000"
 preserveAspectRatio="xMidYMid meet">

<g transform="translate(0.000000,113.000000) scale(0.100000,-0.100000)"
fill="#000000" stroke="none">
<path d="M1839 980 c-80 -24 -109 -73 -109 -184 0 -66 2 -76 18 -76 9 0 27 -3
40 -6 21 -6 22 -4 22 70 0 63 4 80 20 96 41 41 110 10 110 -50 0 -27 3 -30 30
-30 82 0 58 129 -33 170 -45 21 -58 22 -98 10z"/>
<path d="M2772 834 c-12 -8 -22 -26 -22 -39 0 -21 32 -55 52 -55 14 0 48 39
48 55 0 16 -34 55 -48 55 -4 0 -18 -7 -30 -16z"/>
<path d="M1553 821 c-61 -38 -82 -128 -45 -194 l17 -32 3 58 c3 48 6 57 21 57
10 0 26 11 35 25 18 27 61 34 97 14 19 -10 20 -8 17 38 l-3 48 -55 3 c-41 2
-63 -3 -87 -17z"/>
<path d="M2058 829 c-20 -11 -24 -54 -6 -65 7 -4 30 -7 51 -5 47 2 77 -20 77
-58 1 -14 14 -41 29 -60 28 -32 30 -32 40 -13 16 30 13 108 -4 143 -22 42 -71
69 -125 69 -25 0 -53 -5 -62 -11z"/>
<path d="M1730 652 c0 -19 47 -77 80 -100 l35 -23 8 42 c7 35 6 45 -12 62
l-20 20 -18 -31 c-22 -39 -27 -40 -43 -2 -13 31 -30 49 -30 32z"/>
<path d="M2078 601 c-56 -26 -56 -31 0 -31 49 0 52 2 52 25 0 29 -2 29 -52 6z"/>
<path d="M1646 603 c-19 -19 -3 -33 36 -33 23 0 38 4 33 8 -17 15 -63 31 -69
25z"/>
<path d="M1640 530 c0 -24 5 -24 50 0 l35 19 -42 1 c-36 0 -43 -3 -43 -20z"/>
<path d="M1960 513 c0 -45 28 -107 52 -111 34 -6 -4 134 -40 146 -8 2 -12 -9
-12 -35z"/>
<path d="M2079 520 c30 -17 56 -30 58 -30 1 0 3 14 3 30 0 30 0 30 -57 30
l-58 0 54 -30z"/>
<path d="M1511 506 c-8 -9 -16 -41 -19 -71 -3 -43 0 -61 17 -88 25 -41 74 -67
126 -67 52 0 75 15 75 50 0 33 -27 47 -59 31 -11 -6 -42 -11 -70 -11 l-50 0
-3 87 c-3 76 -5 84 -17 69z"/>
<path d="M2227 455 c-22 -53 -73 -94 -130 -103 -34 -6 -43 -12 -45 -31 -5 -30
12 -41 66 -41 88 0 142 56 142 145 0 72 -12 82 -33 30z"/>
<path d="M1940 317 c0 -58 -12 -80 -50 -92 -20 -6 -59 9 -72 29 -4 6 -8 26 -8
44 0 29 -3 32 -29 32 -22 0 -31 -6 -41 -30 -17 -41 -5 -77 39 -122 35 -34 44
-38 92 -38 91 0 141 49 154 151 7 56 7 56 -22 61 -15 3 -36 9 -45 13 -16 6
-18 1 -18 -48z"/>
</g>
</svg>
